<svg width="26" height="179" viewBox="0 0 26 179" fill="none" xmlns="http://www.w3.org/2000/svg">
<path d="M-0.73645 178.513V175.883H9.0378L-0.73645 165.755V162.346L8.25586 171.89L19.3985 162.054V165.463L9.91748 174.033L11.8723 176.078H19.4962V178.707H-0.73645V178.513Z" fill="#FFB32C"/>
<path d="M19.6917 153.971C19.6917 155.139 19.4962 156.113 19.1052 156.99C18.7143 157.866 18.2256 158.548 17.5414 159.23C16.8572 159.814 16.0752 160.301 15.0978 160.593C14.2181 160.885 13.143 161.08 12.0678 161.08C10.9926 161.08 10.0152 160.885 9.03777 160.593C8.06035 160.301 7.27841 159.814 6.59421 159.23C5.91001 158.645 5.32356 157.866 4.93259 156.99C4.54162 156.113 4.34613 155.139 4.34613 153.971C4.34613 152.802 4.54162 151.828 4.93259 150.952C5.32356 150.075 5.91001 149.296 6.59421 148.712C7.27841 148.127 8.06035 147.641 9.03777 147.348C10.0152 147.056 10.9926 146.861 12.0678 146.861C13.143 146.861 14.1204 147.056 15.0978 147.348C15.9775 147.641 16.8572 148.127 17.5414 148.712C18.2256 149.296 18.7143 150.075 19.1052 150.952C19.4962 151.828 19.6917 152.802 19.6917 153.971ZM17.6391 153.971C17.6391 153.386 17.5414 152.802 17.2481 152.218C17.0527 151.633 16.6617 151.147 16.173 150.757C15.6843 150.367 15.0978 149.978 14.4136 149.783C13.7294 149.588 12.9475 149.394 12.0678 149.394C11.1881 149.394 10.4062 149.491 9.72197 149.783C9.03777 149.978 8.45131 150.367 7.9626 150.757C7.47389 151.147 7.18066 151.633 6.88744 152.218C6.69195 152.802 6.49647 153.386 6.49647 153.971C6.49647 154.555 6.59421 155.139 6.88744 155.724C7.08292 156.308 7.47389 156.795 7.9626 157.185C8.45131 157.574 9.03777 157.964 9.72197 158.158C10.4062 158.353 11.1881 158.548 12.0678 158.548C12.9475 158.548 13.7294 158.451 14.4136 158.158C15.0978 157.964 15.6843 157.574 16.173 157.185C16.6617 156.795 16.9549 156.308 17.2481 155.724C17.4436 155.139 17.6391 154.555 17.6391 153.971Z" fill="#FFB32C"/>
<path d="M4.83484 144.135V141.797H10.6016V134.396H4.83484V132.058H19.3985V134.396H12.6542V141.797H19.3985V144.135H4.83484Z" fill="#FFB32C"/>
<path d="M18.3233 120.08C18.5188 120.275 18.6166 120.469 18.812 120.664C19.0075 120.859 19.1053 121.151 19.3008 121.443C19.3985 121.735 19.4962 122.027 19.594 122.32C19.6917 122.612 19.6917 122.904 19.6917 123.196C19.6917 124.267 19.4962 125.241 19.0075 125.923C18.6166 126.702 18.0301 127.286 17.2482 127.676C16.564 128.163 15.6843 128.455 14.7069 128.65C13.7294 128.845 12.752 128.942 11.7746 128.942C9.42877 128.942 7.6694 128.455 6.30101 127.384C5.03036 126.41 4.34616 124.949 4.34616 123.294C4.34616 123.001 4.34616 122.709 4.4439 122.32C4.54164 122.027 4.63939 121.638 4.83487 121.346C5.03036 121.054 5.1281 120.761 5.32358 120.567C5.51907 120.275 5.71455 120.08 5.91004 119.982H-0.73645V117.645H6.00778C5.8123 117.45 5.61681 117.255 5.42133 117.061C5.22584 116.866 5.03036 116.574 4.93261 116.282C4.73713 115.989 4.63939 115.697 4.54164 115.308C4.4439 115.016 4.4439 114.626 4.4439 114.334C4.4439 112.581 5.1281 111.217 6.39875 110.244C7.6694 109.27 9.52651 108.685 11.8723 108.685C12.8498 108.685 13.8272 108.783 14.8046 108.977C15.782 109.172 16.564 109.562 17.3459 109.951C18.0301 110.438 18.6166 111.023 19.1053 111.704C19.4962 112.483 19.7895 113.36 19.7895 114.431C19.7895 115.016 19.6917 115.502 19.3985 116.184C19.1053 116.769 18.812 117.255 18.4211 117.548H25.0676V119.885H18.3233V120.08ZM17.7369 122.904C17.7369 122.222 17.5414 121.541 17.1504 121.054C16.7595 120.567 16.3685 120.177 15.782 120.08H8.54909C8.15812 120.177 7.86489 120.372 7.57166 120.567C7.27843 120.761 7.08295 121.054 6.98521 121.346C6.78972 121.638 6.69198 121.93 6.69198 122.222C6.59424 122.514 6.59424 122.807 6.59424 123.099C6.59424 123.683 6.69198 124.267 6.98521 124.657C7.27843 125.144 7.6694 125.436 8.15812 125.728C8.64683 126.02 9.23328 126.215 9.91748 126.313C10.6017 126.41 11.2859 126.507 12.0678 126.507C12.752 126.507 13.4362 126.41 14.1204 126.313C14.8046 126.215 15.3911 126.02 15.9775 125.728C16.564 125.436 16.9549 125.047 17.3459 124.657C17.5414 124.267 17.7369 123.683 17.7369 122.904ZM17.7369 114.918C17.7369 114.236 17.5414 113.555 17.2482 113.165C16.8572 112.678 16.4662 112.289 15.8798 112.094C15.2933 111.802 14.7069 111.607 14.0227 111.51C13.3385 111.412 12.6543 111.315 11.9701 111.315C11.1881 111.315 10.4062 111.412 9.81974 111.51C9.13554 111.607 8.54909 111.899 8.06037 112.094C7.57166 112.386 7.18069 112.776 6.88746 113.165C6.59424 113.652 6.49649 114.139 6.49649 114.723C6.49649 115.016 6.49649 115.308 6.59424 115.6C6.69198 115.892 6.78972 116.184 6.88746 116.476C7.08295 116.769 7.27843 116.963 7.47392 117.255C7.6694 117.548 8.06037 117.645 8.45134 117.742H15.782C16.2707 117.645 16.7595 117.353 17.1504 116.769C17.5414 116.282 17.7369 115.697 17.7369 114.918Z" fill="#FFB32C"/>
<path d="M19.6917 99.7256C19.6917 100.894 19.4963 101.868 19.1053 102.745C18.7143 103.621 18.2256 104.303 17.5414 104.887C16.8572 105.471 16.0753 105.861 15.0978 106.153C14.1204 106.445 13.143 106.543 12.0678 106.543C10.9927 106.543 10.0152 106.348 9.03781 106.056C8.06038 105.764 7.27844 105.277 6.59424 104.595C5.91005 104.011 5.42133 103.232 5.03036 102.452C4.63939 101.576 4.44391 100.699 4.44391 99.7256C4.44391 98.4595 4.73714 97.3883 5.22585 96.5118C5.71456 95.6353 6.39876 94.9536 7.27844 94.4666C8.06038 93.9797 9.03781 93.5901 10.0152 93.3953C10.9927 93.2006 11.9701 93.1032 12.8498 93.2006V104.205C13.534 104.205 14.1204 104.108 14.7069 104.011C15.2933 103.816 15.782 103.524 16.2708 103.232C16.7595 102.842 17.0527 102.355 17.3459 101.771C17.6391 101.186 17.7369 100.505 17.7369 99.7256C17.7369 98.7517 17.5414 97.8752 17.0527 97.1935C16.564 96.5118 15.8798 96.1222 14.9024 95.9274V93.5901C16.564 93.8823 17.8346 94.564 18.6166 95.7327C19.3008 96.7065 19.6917 98.07 19.6917 99.7256ZM10.6994 95.83C10.113 95.83 9.62426 96.0248 9.13555 96.2196C8.64684 96.4144 8.15812 96.7065 7.8649 97.0961C7.47393 97.4856 7.1807 97.8752 6.98521 98.3621C6.78973 98.8491 6.69199 99.4334 6.69199 100.018C6.69199 100.602 6.78973 101.186 6.98521 101.673C7.1807 102.16 7.47393 102.55 7.8649 102.939C8.25587 103.329 8.64684 103.621 9.13555 103.816C9.62426 104.011 10.2107 104.108 10.6994 104.205V95.83Z" fill="#FFB32C"/>
<path d="M4.83488 90.7659V88.4286H6.78973V88.3312C6.00779 87.9416 5.42133 87.3573 5.03036 86.4808C4.63939 85.6043 4.44391 84.7278 4.44391 83.6565C4.44391 82.4879 4.63939 81.514 5.03036 80.7349C5.42133 79.8584 6.00779 79.1767 6.69199 78.6897C7.37618 78.1054 8.25587 77.7158 9.13555 77.4237C10.0152 77.1315 10.9927 77.0341 12.0678 77.0341C13.143 77.0341 14.1204 77.1315 15.0001 77.4237C15.8798 77.7158 16.6617 78.1054 17.3459 78.6897C18.0301 79.2741 18.6166 79.9558 19.0075 80.7349C19.3985 81.6114 19.594 82.4879 19.594 83.6565C19.594 84.0461 19.594 84.4356 19.4963 84.8252C19.3985 85.2147 19.3008 85.7017 19.1053 86.0912C18.9098 86.4808 18.7143 86.9677 18.4211 87.3573C18.1279 87.7468 17.7369 88.039 17.3459 88.3312V88.4286H24.8721V90.7659H4.83488ZM17.6391 83.8513C17.6391 83.0722 17.4437 82.3905 17.1504 81.8061C16.8572 81.2218 16.3685 80.8323 15.8798 80.4427C15.3911 80.1505 14.7069 79.8584 14.1204 79.761C13.4362 79.5662 12.752 79.5662 12.0678 79.5662C11.3836 79.5662 10.6994 79.6636 10.113 79.8584C9.42878 80.0532 8.84232 80.3453 8.35361 80.6375C7.8649 81.027 7.47393 81.514 7.1807 82.0009C6.88747 82.5853 6.69199 83.267 6.69199 84.0461C6.69199 84.8252 6.88747 85.5069 7.1807 86.0912C7.47393 86.6756 7.96264 87.0651 8.45135 87.4547C8.94006 87.8442 9.52652 88.039 10.2107 88.2338C10.8949 88.4286 11.5791 88.4286 12.1656 88.4286C12.8498 88.4286 13.534 88.3312 14.2182 88.1364C14.9024 87.9416 15.4888 87.7468 15.9775 87.3573C16.4662 86.9677 16.8572 86.4808 17.2482 85.8965C17.4437 85.4095 17.6391 84.7278 17.6391 83.8513Z" fill="#FFB32C"/>
<path d="M19.6917 68.0744C19.6917 69.243 19.4963 70.2169 19.1053 71.0934C18.7143 71.9699 18.2256 72.6516 17.5414 73.2359C16.8572 73.8203 16.0753 74.2098 15.0978 74.502C14.1204 74.7941 13.143 74.8915 12.0678 74.8915C10.9927 74.8915 10.0152 74.6968 9.03781 74.4046C8.06038 74.1124 7.27844 73.6255 6.59424 72.9438C5.91005 72.3594 5.42133 71.5803 5.03036 70.8012C4.63939 70.1195 4.44391 69.1456 4.44391 68.1717C4.44391 66.9057 4.73714 65.8344 5.22585 64.9579C5.71456 64.0814 6.39876 63.3997 7.27844 62.9128C8.06038 62.4258 9.03781 62.0363 10.0152 61.8415C10.9927 61.6467 11.9701 61.5493 12.8498 61.6467V72.5542C13.534 72.5542 14.1204 72.4568 14.7069 72.3594C15.2933 72.1647 15.782 71.8725 16.2708 71.5803C16.7595 71.1908 17.0527 70.7038 17.3459 70.1195C17.6391 69.5352 17.7369 68.8535 17.7369 68.0744C17.7369 67.1005 17.5414 66.224 17.0527 65.5423C16.564 64.8605 15.8798 64.471 14.9024 64.2762V61.9389C16.564 62.2311 17.8346 62.9128 18.6166 64.0814C19.3008 65.0553 19.6917 66.4188 19.6917 68.0744ZM10.6994 64.0814C10.113 64.0814 9.62426 64.2762 9.13555 64.471C8.64684 64.6658 8.15812 64.9579 7.8649 65.3475C7.47393 65.737 7.1807 66.1266 6.98521 66.6135C6.78973 67.1005 6.69199 67.6848 6.69199 68.2691C6.69199 68.8535 6.78973 69.4378 6.98521 69.9247C7.1807 70.4117 7.47393 70.8012 7.8649 71.1908C8.25587 71.5803 8.64684 71.8725 9.13555 72.0673C9.62426 72.262 10.2107 72.3594 10.6994 72.4568V64.0814Z" fill="#FFB32C"/>
<path d="M4.83484 59.1146V56.7773H10.6016V49.3758H4.83484V47.0385H19.3985V49.3758H12.6542V56.7773H19.3985V59.1146H4.83484Z" fill="#FFB32C"/>
<path d="M19.3985 32.1382V43.4352H4.83484V41.0979H17.2481V34.2807H4.83484V31.9434H17.2481V29.9957H23.7969V32.1382H19.3985Z" fill="#FFB32C"/>
<path d="M4.83484 27.5608V25.2235H16.7594L4.83484 18.4063V15.3873H19.3985V17.7246H7.47389L19.3985 24.5418V27.5608H4.83484Z" fill="#FFB32C"/>
<path d="M13.7295 8.66754C13.534 9.73881 13.143 10.5179 12.3611 11.1996C11.5791 11.8814 10.6017 12.1735 9.33106 12.1735C7.96267 12.1735 6.8875 11.784 6.10556 10.9075C5.32362 10.1284 4.93265 8.9597 4.93265 7.59627V0.194763H19.4963V2.53208H13.925V5.84328L19.4963 10.3231V13.537L13.7295 8.66754ZM11.6769 2.62947H6.8875V6.81716C6.8875 7.79105 7.08298 8.57015 7.5717 8.9597C7.96267 9.44664 8.54912 9.64142 9.33106 9.64142C10.113 9.64142 10.6995 9.44664 11.0904 8.9597C11.4814 8.47276 11.6769 7.79105 11.6769 6.81716V2.62947Z" fill="#FFB32C"/>
</svg>
