<svg width="56" height="17" viewBox="0 0 56 17" fill="none" xmlns="http://www.w3.org/2000/svg">
<path d="M38.2953 7.60568C38.2953 9.65083 37.0247 10.5273 35.6563 10.5273C33.9947 10.5273 33.115 9.0665 33.115 7.60568C33.115 5.65791 34.3856 4.68403 35.6563 4.68403C37.2202 4.68403 38.2953 5.95008 38.2953 7.60568ZM36.0472 3.22321C34.8743 3.22321 33.8969 3.80754 33.2127 4.78142V3.51537H31.5511V15.5915H33.2127V10.7221C33.8969 11.696 34.8743 12.1829 35.9495 12.1829C37.1224 12.1829 38.1976 11.696 38.8818 10.8195C39.566 10.0404 39.9569 8.87173 39.9569 7.70307C39.9569 6.53441 39.566 5.46313 38.8818 4.68403C38.1976 3.71015 37.1224 3.22321 36.0472 3.22321Z" fill="white"/>
<path d="M7.01767 3.41798V4.78142C6.33348 3.80754 5.35605 3.22321 4.18314 3.22321C3.01023 3.22321 2.0328 3.71016 1.34861 4.58665C0.664408 5.36575 0.273438 6.43701 0.273438 7.60567C0.273438 8.77433 0.664408 9.94298 1.34861 10.7221C2.0328 11.5986 3.10797 12.0855 4.28088 12.0855C5.35605 12.0855 6.33348 11.5012 7.01767 10.6247V11.8908C7.01767 13.3516 6.72445 14.8124 4.67185 14.8124C3.20571 14.8124 2.22829 13.9359 2.22829 12.5725V12.4751H0.664408V12.5725C0.664408 14.8124 2.32603 16.3706 4.67185 16.3706C8.28833 16.3706 8.77704 13.7411 8.77704 11.4038V3.51537H7.01767V3.41798ZM4.47637 10.5273C2.81474 10.5273 1.93506 9.06649 1.93506 7.60567C1.93506 5.65791 3.20571 4.68403 4.47637 4.68403C6.04025 4.68403 7.11542 5.85269 7.11542 7.60567C7.01767 9.65082 5.74702 10.5273 4.47637 10.5273Z" fill="white"/>
<path d="M55.2048 6.82648C54.4229 7.11865 53.6409 7.31342 53.0545 7.31342C52.5658 7.31342 52.2726 7.21604 52.0771 6.92388C51.8816 6.63171 51.8816 6.24215 51.9793 5.65782L52.468 3.51529C52.6635 2.44402 52.5658 1.66492 52.1748 1.17797C51.7838 0.691033 51.1974 0.496244 50.4154 0.496244C49.5358 0.496244 48.7538 0.788409 47.9719 1.47013C47.6787 0.885797 46.9945 0.496244 46.1148 0.496244C45.3328 0.496244 44.6486 0.788412 43.9644 1.27535C43.6712 0.788412 42.8893 0.398865 42.0096 0.398865C41.6186 0.398865 41.1299 0.49625 40.7389 0.593638H40.6412L40.348 2.15186L40.7389 1.95707C41.3254 1.76229 41.8141 1.76229 42.0096 1.95707C42.2051 2.15184 42.2051 2.44402 42.1073 2.83357L41.0322 7.41082H42.8893L43.6712 4.197C44.0622 2.63879 44.7464 1.85969 45.7238 1.85969C46.017 1.85969 46.2125 1.95708 46.3103 2.15186C46.5057 2.34663 46.5057 2.73618 46.408 3.32051L45.4306 7.41082H47.2877L48.1674 3.61268C48.3629 2.6388 49.2425 1.85969 50.1222 1.85969C50.4154 1.85969 50.6109 1.95708 50.7087 2.15186C50.9042 2.34663 50.9042 2.73618 50.8064 3.32051L50.3177 5.65782C50.1222 6.63171 50.22 7.41082 50.7087 7.89776C51.1974 8.48209 51.9793 8.77425 52.9568 8.77425C53.7387 8.77425 54.6184 8.57948 55.4981 8.18993L55.5958 8.09253L55.9868 6.33954L55.2048 6.82648Z" fill="white"/>
<path d="M22.461 5.85264C22.2655 5.26831 21.9723 4.87876 21.5813 4.48921C21.1904 4.09966 20.7994 3.8075 20.2129 3.61272C19.7242 3.41795 19.04 3.32056 18.3558 3.32056C17.6716 3.32056 17.0852 3.41795 16.4987 3.61272C16.01 3.8075 15.5213 4.09966 15.1303 4.48921C14.7394 4.87876 14.4461 5.3657 14.2507 5.85264C14.0552 6.43696 13.9574 7.02129 13.9574 7.60562C13.9574 8.28734 14.0552 8.87168 14.2507 9.456C14.4461 10.0403 14.7394 10.4299 15.1303 10.8194C15.5213 11.209 15.9123 11.5011 16.4987 11.6959C16.9874 11.8907 17.6716 11.9881 18.3558 11.9881C19.04 11.9881 19.6265 11.8907 20.2129 11.6959C20.7017 11.5011 21.1904 11.209 21.5813 10.8194C21.9723 10.4299 22.2655 9.94294 22.461 9.456C22.6565 8.87168 22.7542 8.28734 22.7542 7.60562C22.7542 7.02129 22.6565 6.33958 22.461 5.85264ZM19.6265 10.4299C19.3333 10.6247 18.9423 10.722 18.4536 10.722C18.0626 10.722 17.6716 10.6247 17.2807 10.4299C16.9874 10.2351 16.6942 10.0403 16.4987 9.74816C16.3032 9.45599 16.1078 9.16383 16.01 8.77428C15.9123 8.38472 15.9123 7.99517 15.9123 7.60562C15.9123 7.21607 15.9123 6.82653 16.01 6.53436C16.1078 6.14481 16.3032 5.85265 16.4987 5.56048C16.6942 5.26832 16.9874 5.07353 17.2807 4.87876C17.5739 4.68398 17.9649 4.5866 18.4536 4.5866C18.8445 4.5866 19.2355 4.68398 19.6265 4.87876C19.9197 5.07353 20.2129 5.26832 20.4084 5.56048C20.6039 5.85265 20.7994 6.14481 20.8971 6.53436C20.9949 6.92392 20.9949 7.31346 20.9949 7.60562C20.9949 7.99517 20.9949 8.38472 20.8971 8.77428C20.7994 9.16383 20.6039 9.45599 20.4084 9.74816C20.2129 10.0403 19.9197 10.3325 19.6265 10.4299Z" fill="white"/>
<path d="M28.8143 8.09264C28.8143 9.74824 28.2278 10.5273 26.9572 10.5273C25.6865 10.5273 25.1001 9.74824 25.1001 8.09264V3.51538H23.4384V8.28741C23.4384 10.7221 24.7091 12.0856 26.9572 12.0856C29.2053 12.0856 30.4759 10.7221 30.4759 8.28741V3.51538H28.8143V8.09264V8.09264Z" fill="white"/>
<path d="M14.9348 3.61277C14.4461 3.3206 14.0551 3.22321 13.5664 3.22321C12.5889 3.22321 11.7093 3.80754 11.3183 4.68403V3.41798H9.65668V11.7934H11.3183V7.70308C11.3183 6.33964 11.5138 4.87881 13.1754 4.87881C13.4686 4.87881 13.6641 4.87881 13.8596 4.9762L14.9348 3.61277Z" fill="white"/>
</svg>
