<svg width="62" height="10" viewBox="0 0 62 10" fill="none" xmlns="http://www.w3.org/2000/svg">
<path d="M10.1646 9.37766H7.72105V3.43698L6.15716 9.47504H4.49554L2.93166 3.43698V9.47504H0.976807V1.09967H4.39779L5.57072 5.57951L6.74362 1.09967H10.1646V9.37766Z" fill="white"/>
<path d="M17.202 9.37769H10.8488V1.00232H17.202V2.95008H13.3901V4.21612H16.4201V6.06649H13.3901V7.42993H17.202V9.37769Z" fill="white"/>
<path d="M17.7886 1.00232H20.9164C22.0893 1.00232 23.0667 1.1971 24.0441 2.07359C24.9238 2.95009 25.3148 4.02134 25.3148 5.28739C25.3148 6.35866 24.9238 7.52732 24.1419 8.30643C23.2622 9.18292 22.2848 9.47508 21.1118 9.47508H17.7886V1.00232ZM20.7209 7.52732C21.1118 7.52732 21.3073 7.52732 21.6005 7.33255C21.796 7.23516 21.9915 7.04038 22.187 6.74821C22.4802 6.26127 22.578 5.67695 22.578 5.09262C22.578 4.50829 22.3825 3.82657 22.0893 3.33963C21.6983 2.85269 21.3073 2.85269 20.7209 2.85269H20.4276V7.42994H20.7209V7.52732Z" fill="white"/>
<path d="M28.3446 9.37769H25.7056V1.00232H28.3446V9.37769Z" fill="white"/>
<path d="M33.6228 7.72208H31.3747L30.886 9.37769H28.7357L31.3747 1.00232H34.1115L36.7505 9.37769H34.1115L33.6228 7.72208ZM33.2318 5.96911L32.5476 3.53441L31.8634 5.96911H33.2318Z" fill="white"/>
<path d="M43.5925 6.35864C43.397 8.3064 42.0286 9.57245 40.0737 9.57245C37.5324 9.57245 36.164 7.72207 36.164 5.38476C36.164 2.95006 37.3369 0.904907 39.976 0.904907C42.1263 0.904907 43.397 2.17095 43.4947 4.31349L41.0511 4.41088C41.0511 3.72917 40.7579 2.85267 39.976 2.85267C38.8031 2.85267 38.8031 4.60566 38.8031 5.38476C38.8031 6.26125 38.9008 7.62469 39.976 7.62469C40.7579 7.62469 41.0512 6.94296 41.1489 6.26125L43.5925 6.35864Z" fill="white"/>
<path d="M51.9983 5.28737C51.9983 7.72207 50.5322 9.57245 47.9909 9.57245C45.4495 9.57245 43.9834 7.62468 43.9834 5.28737C43.9834 2.75528 45.4495 0.904907 47.9909 0.904907C50.5322 0.904907 51.9983 2.75528 51.9983 5.28737ZM46.7202 5.28737C46.7202 6.06647 46.8179 7.62469 47.9909 7.62469C49.1638 7.62469 49.2615 6.06647 49.2615 5.28737C49.2615 4.50826 49.1638 2.85267 47.9909 2.85267C46.8179 2.75528 46.7202 4.41088 46.7202 5.28737Z" fill="white"/>
<path d="M61.5771 9.37766H59.1335V3.43698L57.5696 9.47504H55.908L54.3441 3.43698V9.47504H52.3893V1.09967H55.8103L56.9832 5.57951L58.1561 1.09967H61.5771V9.37766Z" fill="white"/>
</svg>
