<svg width="75" height="22" viewBox="0 0 75 22" fill="none" xmlns="http://www.w3.org/2000/svg">
<g opacity="0.5">
<path opacity="0.5" d="M63.0978 21.6104L60.8497 13.0402L65.2481 20.7339L65.1503 20.8313C64.5639 21.2208 63.8797 21.4156 63.1955 21.6104H63.0978ZM61.5339 14.6958L63.2932 21.3182C63.8797 21.1235 64.4661 20.9287 64.9549 20.6365L61.5339 14.6958Z" fill="white"/>
<path opacity="0.5" d="M59.1881 21.6104H59.0903C58.4061 21.4156 57.8197 21.1234 57.1355 20.8313L57.0378 20.7339L61.0452 13.8193H61.2407V14.0141L59.1881 21.6104ZM57.4287 20.6365C57.9174 20.9287 58.5039 21.1234 59.0903 21.3182L60.8497 14.6958L57.4287 20.6365Z" fill="white"/>
<path opacity="0.5" d="M61.1429 21.8052H61.0451V12.9429L63.2932 21.5131H63.1955C62.5113 21.8052 61.8271 21.8052 61.1429 21.8052ZM61.2406 14.7933V21.6105C61.8271 21.6105 62.4135 21.5131 63 21.4157L61.2406 14.7933Z" fill="white"/>
<path opacity="0.5" d="M61.1429 21.8052C60.4587 21.8052 59.7745 21.7078 59.0903 21.5131H58.9926L61.2407 12.9429V21.8052H61.1429ZM59.2858 21.4157C59.8722 21.5131 60.4587 21.6105 61.0452 21.6105V14.7933L59.2858 21.4157Z" fill="white"/>
<path opacity="0.5" d="M65.0526 20.8313L61.0451 13.9167L61.1429 13.7219L66.9097 19.4679L66.812 19.5653C66.3232 20.0522 65.7368 20.4418 65.1503 20.8313H65.0526ZM61.7293 14.5984L65.1503 20.5391C65.6391 20.247 66.1278 19.8574 66.5187 19.4679L61.7293 14.5984Z" fill="white"/>
<path opacity="0.5" d="M55.5717 19.5652C54.9852 18.9809 54.5942 18.3966 54.2033 17.8123L54.1055 17.7149L60.9475 13.722L61.0452 13.6246L61.143 13.9167H61.0452L55.5717 19.5652ZM54.4965 17.8123C54.7897 18.2992 55.1807 18.7862 55.5717 19.2731L60.361 14.5011L54.4965 17.8123Z" fill="white"/>
<path opacity="0.5" d="M61.143 14.0142L54.1055 10.0213L54.2033 9.92388C54.5942 9.33955 54.9852 8.75523 55.4739 8.26829L55.5717 8.1709L61.2407 13.8194L61.143 14.0142ZM54.4965 9.92388L60.4588 13.3324L55.5717 8.56046C55.1807 8.95001 54.7897 9.43694 54.4965 9.92388Z" fill="white"/>
<path opacity="0.5" d="M61.7294 14.5983L61.1429 14.014L61.2407 13.9166L61.1429 14.014L55.4739 8.36548L55.5716 8.2681C56.0603 7.78116 56.6468 7.39161 57.2332 7.00206L57.331 6.90466L61.7294 14.5983ZM55.7671 8.36548L60.5565 13.1375L57.1355 7.19683C56.6468 7.58638 56.1581 7.97593 55.7671 8.36548Z" fill="white"/>
<path opacity="0.5" d="M61.5339 14.6958L57.1355 7.0021L57.2332 6.90471C57.8197 6.51515 58.5039 6.32039 59.1881 6.12561H59.2858L61.5339 14.6958ZM57.4287 7.19687L60.8497 13.1376L59.0903 6.51516C58.5039 6.61255 57.9174 6.90471 57.4287 7.19687Z" fill="white"/>
<path opacity="0.5" d="M61.6317 14.014H61.143L53.4213 11.9689V11.8715C53.6168 11.1898 53.91 10.6055 54.2032 9.92375L54.301 9.82635L61.6317 14.014ZM53.7145 11.7741L60.361 13.5271L54.3987 10.1185C54.1055 10.7028 53.91 11.1898 53.7145 11.7741Z" fill="white"/>
<path opacity="0.5" d="M61.143 14.014H53.128V13.9166C53.128 13.2349 53.2258 12.5532 53.4213 11.8715V11.7741L61.3385 13.9166L61.143 14.014ZM53.4213 13.8192H60.2633L53.6167 12.0663C53.519 12.5532 53.4213 13.2349 53.4213 13.8192Z" fill="white"/>
<path opacity="0.5" d="M57.2332 20.8313L57.1355 20.7339C56.549 20.3444 55.9626 19.9548 55.4739 19.4679L55.3761 19.3705L61.0452 13.7219H61.4361L61.2406 13.9167L57.2332 20.8313ZM55.7671 19.4679C56.1581 19.8574 56.6468 20.247 57.1355 20.5391L60.5564 14.5984L55.7671 19.4679Z" fill="white"/>
<path opacity="0.5" d="M54.301 18.007L54.2032 17.9097C53.8122 17.3253 53.6168 16.6436 53.4213 15.9619V15.8645L61.143 13.8193H61.6317L61.2407 14.0141L54.301 18.007ZM53.7145 16.0593C53.91 16.6436 54.1055 17.2279 54.3987 17.7149L60.361 14.3063L53.7145 16.0593Z" fill="white"/>
<path opacity="0.5" d="M53.519 16.0592V15.9618C53.3235 15.2801 53.2258 14.5984 53.2258 13.9167V13.8193H62.1203L53.519 16.0592ZM53.4213 14.0141C53.4213 14.5984 53.519 15.1827 53.6167 15.767L60.2632 14.0141H53.4213Z" fill="white"/>
<path opacity="0.5" d="M60.8497 14.6958L63.0978 6.12561H63.1955C63.8797 6.32039 64.4661 6.61254 65.1503 6.90471L65.2481 7.0021L60.8497 14.6958ZM63.2932 6.51516L61.5339 13.1376L64.9549 7.19687C64.3684 6.90471 63.8797 6.61255 63.2932 6.51516Z" fill="white"/>
<path opacity="0.5" d="M60.5565 14.5983L64.9549 6.90466L65.0526 7.00206C65.6391 7.39161 66.2256 7.78116 66.7143 8.2681L66.812 8.36548L60.5565 14.5983ZM65.1504 7.29422L61.7294 13.2349L66.5188 8.46288C66.1278 7.97594 65.6391 7.58639 65.1504 7.29422Z" fill="white"/>
<path opacity="0.5" d="M66.7142 19.5652L61.1429 14.0141L61.3384 13.8193C61.8271 14.3063 62.3158 14.6958 62.9022 14.988C63.4887 15.2802 64.0752 15.5723 64.7593 15.7671L68.1803 17.7149L68.0826 17.8123C67.6916 18.494 67.3006 19.0783 66.7142 19.5652ZM62.609 15.1828L66.7142 19.2731C67.1052 18.8835 67.4961 18.3966 67.7894 17.9096L64.6616 16.0593C63.9774 15.8645 63.3909 15.5723 62.7068 15.2802C62.7068 15.1828 62.609 15.1828 62.609 15.1828Z" fill="white"/>
<path opacity="0.5" d="M67.9849 18.007L63.782 15.5723L64.6617 15.767C65.3459 15.9618 65.9323 16.0592 66.6165 16.0592C67.3007 16.0592 67.9849 15.9618 68.5713 15.767L68.7668 15.6696L68.6691 15.8644C68.4736 16.5462 68.1804 17.1305 67.8872 17.8122L67.9849 18.007ZM65.3459 16.1566L67.8872 17.6174C68.1804 17.1305 68.3759 16.6435 68.5713 16.0592C67.9849 16.1566 67.3007 16.254 66.7143 16.254C66.2255 16.3514 65.8346 16.254 65.3459 16.1566Z" fill="white"/>
<path opacity="0.5" d="M61.0451 14.7932V5.93085H61.1429C61.8271 5.93085 62.5113 6.02824 63.1955 6.22301H63.2932L61.0451 14.7932ZM61.2406 6.22301V13.0402L63 6.41779C62.4135 6.3204 61.8271 6.22301 61.2406 6.22301Z" fill="white"/>
<path opacity="0.5" d="M61.2407 14.7932L58.9926 6.22301H59.0903C59.7745 6.02824 60.4587 5.93085 61.1429 5.93085H61.2407V14.7932ZM59.2858 6.41779L61.0452 13.0402V6.22301C60.4587 6.22301 59.8722 6.3204 59.2858 6.41779Z" fill="white"/>
<path opacity="0.5" d="M66.7143 16.3514H66.6165V7.48914L68.8646 16.0593H68.7668C68.0826 16.254 67.3985 16.3514 66.7143 16.3514ZM66.812 9.24212V16.0593C67.3984 16.0593 67.9849 15.9619 68.5713 15.8645L66.812 9.24212Z" fill="white"/>
<path opacity="0.5" d="M68.6692 16.0592L66.4211 7.48914L70.8195 15.1828L70.7217 15.2801C70.1353 15.6697 69.4511 15.8645 68.7669 16.0592H68.6692ZM67.0075 9.24212L68.7669 15.8645C69.3533 15.6697 69.9398 15.4749 70.4285 15.1828L67.0075 9.24212Z" fill="white"/>
<path opacity="0.5" d="M66.812 16.3515H66.7142C66.03 16.3515 65.3458 16.2541 64.6616 16.0593H64.5639L66.7142 8.1709L66.9097 8.36567V8.46306V16.3515H66.812ZM64.8571 15.8645C65.4436 15.9619 66.03 16.0593 66.6165 16.0593V9.24217L64.8571 15.8645Z" fill="white"/>
<path opacity="0.5" d="M64.7594 16.0592H64.6617C63.9775 15.8645 63.391 15.5723 62.7068 15.2801L62.6091 15.1828L67.0075 7.48914L64.7594 16.0592ZM62.9023 15.0854C63.391 15.3775 63.9775 15.5723 64.564 15.7671L66.3233 9.14472L62.9023 15.0854Z" fill="white"/>
<path opacity="0.5" d="M62.8046 15.2803L62.7069 15.1829C62.1204 14.7933 61.5339 14.4038 61.0452 13.9168L60.9475 13.8194L67.203 7.58661L62.8046 15.2803ZM61.3385 13.9168C61.7294 14.3064 62.2181 14.6959 62.8046 14.9881L66.2256 9.04743L61.3385 13.9168Z" fill="white"/>
<path opacity="0.5" d="M74.3382 10.5082L66.6165 8.46307H66.5188V8.1709H66.6165H74.5337V8.26829C74.5337 8.95001 74.4359 9.63172 74.2404 10.3134L74.3382 10.5082ZM67.5939 8.46307L74.2404 10.2161C74.3382 9.63173 74.4359 9.0474 74.4359 8.46307H67.5939Z" fill="white"/>
<path opacity="0.5" d="M66.7143 8.56032L66.5188 8.46292L68.5714 0.671875H68.6691C69.3533 0.866651 69.9398 1.15882 70.624 1.45098L70.7217 1.54836L66.7143 8.56032ZM68.8646 0.964042L67.1052 7.58644L70.5262 1.64576C69.9398 1.35359 69.3533 1.15882 68.8646 0.964042Z" fill="white"/>
<path opacity="0.5" d="M66.6165 8.75514V0.379761H66.7143C67.3985 0.379761 68.0826 0.477152 68.7668 0.671928H68.8646L66.812 8.36558L66.6165 8.75514ZM66.812 0.671928V7.48909L68.5713 0.866701C67.9849 0.769313 67.3984 0.671928 66.812 0.671928Z" fill="white"/>
<path opacity="0.5" d="M66.812 9.24207L64.5639 0.671927H64.6616C65.3458 0.477152 66.03 0.379761 66.7142 0.379761H66.812V9.24207ZM64.8571 0.8667L66.6165 7.48908V0.671927C66.03 0.671927 65.3458 0.769312 64.8571 0.8667Z" fill="white"/>
<path opacity="0.5" d="M66.3233 8.85245L70.624 1.45093L70.7217 1.54831C71.3082 1.93786 71.8946 2.32742 72.3833 2.81436L72.4811 2.91176L66.812 8.56029L66.3233 8.85245ZM70.7217 1.7431L67.3007 7.68379L72.0901 2.91176C71.6991 2.42481 71.2104 2.03526 70.7217 1.7431Z" fill="white"/>
<path opacity="0.5" d="M66.7143 8.46306H66.4211L72.2857 2.61975L72.3834 2.71715C72.8721 3.20409 73.2631 3.78842 73.6541 4.37275L73.7518 4.47013L66.7143 8.46306ZM72.2857 3.0093L67.3985 7.87872L73.3608 4.47013C73.0676 3.88579 72.6766 3.39885 72.2857 3.0093Z" fill="white"/>
<path opacity="0.5" d="M73.5562 12.456L66.6165 8.46306H66.5188V8.1709L66.7143 8.26829L74.4359 10.3134V10.4108C74.2404 11.0925 73.9472 11.6769 73.654 12.3586L73.5562 12.456ZM67.4962 8.75523L73.4585 12.1638C73.7517 11.6769 73.9472 11.0925 74.1427 10.5082L67.4962 8.75523Z" fill="white"/>
<path opacity="0.5" d="M66.3233 8.46291L66.6165 8.26813L74.3382 6.22296V6.32036C74.5337 7.00208 74.6314 7.68379 74.6314 8.36551V8.46291H66.3233ZM74.2404 6.51513L67.594 8.26813H74.4359C74.4359 7.6838 74.3382 7.09946 74.2404 6.51513Z" fill="white"/>
<path opacity="0.5" d="M65.8346 8.75517L73.5562 4.37268L73.654 4.47006C74.0449 5.05439 74.2404 5.73611 74.4359 6.41783V6.51523L65.8346 8.75517ZM73.4585 4.56746L67.4962 7.97606L74.1427 6.22306C73.9472 5.63873 73.7517 5.15179 73.4585 4.56746Z" fill="white"/>
<path opacity="0.5" d="M67.3007 9.04727L61.0451 2.8144L61.1429 2.71702C61.6316 2.23008 62.2181 1.84052 62.8045 1.45097L62.9022 1.35358L67.3007 9.04727ZM61.3384 2.8144L66.1278 7.58645L62.7068 1.64574C62.218 2.0353 61.7293 2.42485 61.3384 2.8144Z" fill="white"/>
<path opacity="0.5" d="M67.0075 9.24203L62.6091 1.54836L62.7068 1.45098C63.2933 1.06143 63.9775 0.866651 64.6617 0.671875H64.7594V0.769269L67.0075 9.24203ZM62.9023 1.64576L66.3233 7.58644L64.564 0.964042C63.9775 1.15882 63.4888 1.35359 62.9023 1.64576Z" fill="white"/>
<path opacity="0.5" d="M66.6165 8.46307C66.1278 7.97613 65.6391 7.58658 65.0526 7.29442C64.4661 7.00225 63.8797 6.71008 63.1955 6.51531L59.7745 4.56754L59.8723 4.47014C60.2632 3.88581 60.6542 3.30148 61.1429 2.81454L61.2406 2.71716L66.9097 8.36568L66.6165 8.46307ZM63.1955 6.22314C63.8797 6.41791 64.4661 6.71008 65.1503 7.00225C65.1503 7.00225 65.2481 7.00225 65.2481 7.09964L61.1429 3.00932C60.7519 3.39887 60.361 3.88582 60.0677 4.37276L63.1955 6.22314Z" fill="white"/>
<path opacity="0.5" d="M63.9774 6.71001L63.0978 6.51523C62.4136 6.32045 61.7294 6.22306 61.1429 6.22306C60.4587 6.22306 59.7745 6.32045 59.1881 6.51523L58.9926 6.61263L59.0903 6.41784C59.2858 5.73612 59.579 5.15178 59.8722 4.47006L59.97 4.37268L63.9774 6.71001ZM59.97 4.56746C59.6768 5.0544 59.4813 5.54135 59.2858 6.12568C59.8722 6.02829 60.5565 5.93089 61.1429 5.93089C61.6316 5.93089 62.0226 5.9309 62.4136 6.02829L59.97 4.56746Z" fill="white"/>
<path opacity="0.5" d="M72.2855 14.1115L66.6165 8.46302L66.7143 8.26825L73.7517 12.2612L73.6539 12.3586C73.263 12.9429 72.872 13.5272 72.2855 14.1115ZM67.3985 8.94996L72.2855 13.8194C72.6765 13.4298 73.0675 12.9429 73.3607 12.3586L67.3985 8.94996Z" fill="white"/>
<path opacity="0.5" d="M70.624 15.2803L66.2256 7.58661L72.4811 13.8194L72.3834 13.9168C71.8947 14.4038 71.3082 14.7933 70.7217 15.1829L70.624 15.2803ZM67.3008 9.04743L70.7217 14.9881C71.2105 14.6959 71.6992 14.3064 72.0901 13.9168L67.3008 9.04743Z" fill="white"/>
</g>
<path d="M6.70034 13.9171H5.62517V10.3137L3.67032 12.6511C3.57258 12.7484 3.47484 12.7484 3.37709 12.6511L1.42224 10.3137V13.9171H0.347076V8.9503C0.347076 8.65814 0.640302 8.36597 0.93353 8.36597C1.12902 8.36597 1.3245 8.46336 1.42224 8.65813L3.47483 11.1902L5.62517 8.56075C5.72292 8.46337 5.9184 8.36597 6.01614 8.36597C6.30937 8.36597 6.6026 8.65814 6.6026 8.9503V13.9171H6.70034Z" fill="white"/>
<path d="M34.557 13.9168H35.8276L36.5118 12.4559H38.9554L39.7373 13.9168H41.008L38.2712 8.65777C38.1735 8.46299 37.978 8.3656 37.7825 8.3656C37.587 8.3656 37.3915 8.46299 37.2938 8.65777L34.557 13.9168ZM37.6847 9.92383L38.4667 11.4821H36.9028L37.6847 9.92383Z" fill="white"/>
<path d="M15.5949 13.9168H14.813L11.0988 10.2161V13.9168H10.0237V8.95002C10.0237 8.65786 10.3169 8.36569 10.6101 8.36569C10.8056 8.36569 10.9033 8.46309 11.0988 8.56048L14.5198 11.9691V8.65786C14.5198 8.46308 14.7153 8.26831 14.9107 8.26831H15.3017C15.4972 8.26831 15.6927 8.46308 15.6927 8.65786V13.9168H15.5949Z" fill="white"/>
<path d="M20.1888 8.463C19.7978 8.36561 19.4069 8.3656 18.8204 8.3656H17.2565C16.9633 8.3656 16.6701 8.65777 16.6701 8.94994V13.9168H18.5272C19.1136 13.9168 19.6023 13.8194 20.0911 13.722C21.5572 13.3324 22.3391 12.3585 22.3391 11.0925C22.3391 9.72905 21.5572 8.85255 20.1888 8.463ZM19.8956 12.7481C19.5046 12.8455 19.1136 12.8455 18.6249 12.8455H17.9407V9.43688H18.8204C19.3091 9.43688 19.7001 9.43689 19.9933 9.53428C20.873 9.72906 21.264 10.216 21.264 11.0925C21.1662 11.8716 20.7753 12.4559 19.8956 12.7481Z" fill="white"/>
<path d="M44.9177 11.6769C45.7973 11.3847 46.1883 10.8978 46.1883 10.0213C46.1883 8.95003 45.3086 8.26831 43.9402 8.26831H42.0831C41.7899 8.26831 41.4966 8.56047 41.4966 8.85263V13.8194H42.5718V11.7743H43.5492L44.9177 13.8194H46.2861L44.9177 11.6769ZM42.6696 10.8004V9.43696H44.038C44.4289 9.43696 45.0154 9.53435 45.0154 10.1187C45.0154 10.4108 44.9177 10.8004 43.8425 10.8004H42.6696Z" fill="white"/>
<path d="M7.77551 13.9168H8.85069V8.75517C8.85069 8.56039 8.6552 8.3656 8.45971 8.3656H8.06874C7.87325 8.3656 7.67776 8.56039 7.67776 8.75517V13.9168H7.77551Z" fill="white"/>
<path d="M33.8727 13.9168H32.6998V11.5794H29.7676V13.9168H28.6924V8.75517C28.6924 8.56039 28.8879 8.3656 29.0834 8.3656H29.4743C29.6698 8.3656 29.8653 8.56039 29.8653 8.75517V10.6055H32.7976V8.75517C32.7976 8.56039 32.9931 8.3656 33.1885 8.3656H33.5795C33.775 8.3656 33.9705 8.56039 33.9705 8.75517V13.9168H33.8727Z" fill="white"/>
<path d="M25.5646 10.6056C24.7827 10.5082 24.294 10.4108 24.294 9.9239C24.294 9.53435 24.685 9.33957 25.3692 9.33957C26.1511 9.33957 26.7375 9.63174 27.0308 9.72913C27.1285 9.72913 27.1285 9.72912 27.1285 9.63173L27.4217 8.95002C27.4217 8.95002 27.4217 8.95002 27.4217 8.85263C27.4217 8.75524 27.4217 8.75525 27.324 8.75525C26.7375 8.46309 25.9556 8.26831 25.2714 8.26831C23.903 8.26831 23.1211 8.85263 23.1211 9.9239C23.1211 10.4108 23.3166 10.8004 23.6098 11.0925C24.0008 11.3847 24.685 11.4821 25.2714 11.5795C26.0534 11.6769 26.5421 11.7743 26.5421 12.1638C26.5421 12.8455 25.6624 12.8455 25.2714 12.8455C24.685 12.8455 24.0985 12.6508 23.6098 12.3586L23.5121 12.2612L23.4143 12.3586L23.0233 13.0403L22.9256 13.3325L23.0233 13.4299C23.4143 13.722 24.0985 14.0142 25.1737 14.0142C26.6398 14.0142 27.6172 13.3325 27.6172 12.2612C27.715 10.8978 26.5421 10.703 25.5646 10.6056Z" fill="white"/>
<path d="M50.9777 11.3847C50.9777 11.4821 50.88 11.5794 50.7822 11.5794H48.3387V12.8455H51.2709V13.9168H47.1658V8.94994C47.1658 8.65777 47.459 8.3656 47.7522 8.3656H50.9777C51.0754 8.3656 51.1732 8.463 51.1732 8.56039V9.14471C51.1732 9.2421 51.0754 9.33949 50.9777 9.33949H48.3387V10.5082H50.7822C50.88 10.5082 50.9777 10.6056 50.9777 10.7029V11.3847Z" fill="white"/>
<path d="M61.1429 21.9999C56.6468 21.9999 52.9326 18.3965 52.9326 13.8193C52.9326 9.33942 56.549 5.63867 61.1429 5.63867C63.2933 5.63867 65.3459 6.51516 66.9098 7.97598L66.421 8.46293C65.0526 7.09949 63.0978 6.32039 61.1429 6.32039C57.0378 6.32039 53.7145 9.63158 53.7145 13.7219C53.7145 17.8122 57.0378 21.1234 61.1429 21.1234C64.5639 21.1234 67.594 18.7861 68.3759 15.4749L69.0601 15.6697C68.1804 19.4678 64.9549 21.9999 61.1429 21.9999Z" fill="white"/>
<path d="M61.143 14.5984C60.752 14.5984 60.4588 14.3063 60.4588 13.9167C60.4588 13.5272 60.752 13.235 61.143 13.235C61.534 13.235 61.8272 13.5272 61.8272 13.9167C61.8272 14.3063 61.534 14.5984 61.143 14.5984ZM61.143 13.8193C61.143 13.8193 61.143 13.9167 61.143 13.8193C61.143 13.9167 61.143 13.9167 61.143 13.8193C61.143 13.9167 61.143 13.9167 61.143 13.8193C61.143 13.9167 61.143 13.8193 61.143 13.8193Z" fill="white"/>
<path d="M66.7142 16.4488C64.5639 16.4488 62.5113 15.6697 61.0452 14.1115L61.5339 13.6245C62.9023 14.988 64.7594 15.7671 66.7142 15.7671C67.3984 15.7671 68.0826 15.6697 68.6691 15.4749C71.8946 14.5984 74.1426 11.6768 74.1426 8.2682C74.1426 4.1779 70.8194 0.866693 66.7142 0.866693C63.2932 0.866693 60.2632 3.20401 59.4813 6.51521L58.7971 6.32043C59.6768 2.61969 63 0.0875854 66.7142 0.0875854C71.2104 0.0875854 74.9246 3.69095 74.9246 8.2682C74.9246 11.9689 72.481 15.1827 68.8645 16.1566C68.1803 16.3514 67.3984 16.4488 66.7142 16.4488Z" fill="white"/>
<path d="M66.7143 8.95C66.3234 8.95 66.1279 8.65782 66.1279 8.36565C66.1279 7.97608 66.4211 7.78131 66.7143 7.78131C67.1053 7.78131 67.3008 8.07347 67.3008 8.36565C67.3008 8.65782 67.0076 8.95 66.7143 8.95ZM66.7143 8.26826C66.6166 8.26826 66.6166 8.26826 66.7143 8.26826C66.6166 8.36566 66.7143 8.46304 66.7143 8.46304C66.7143 8.36565 66.8121 8.36566 66.7143 8.26826C66.8121 8.26826 66.7143 8.26826 66.7143 8.26826Z" fill="white"/>
<path d="M66.4908 8.10083L60.9124 13.6985L61.3979 14.1788L66.9763 8.58118L66.4908 8.10083Z" fill="white"/>
</svg>
