<svg width="60" height="21" viewBox="0 0 60 21" fill="none" xmlns="http://www.w3.org/2000/svg">
<path d="M15.2381 19.9548C15.1403 19.9548 14.9448 19.8574 14.7494 19.5652L14.2606 18.2018H11.2306L10.7419 19.5652C10.6442 19.8574 10.4487 19.9548 10.2532 19.9548C10.0577 19.9548 9.76448 19.76 9.76448 19.4678C9.76448 19.3705 9.76449 19.2731 9.86223 19.1757L12.208 13.3324C12.4035 12.8454 12.599 12.8454 12.7945 12.8454C12.99 12.8454 13.1855 12.9428 13.381 13.3324L15.7268 19.1757C15.8245 19.2731 15.8245 19.3705 15.8245 19.4678C15.7268 19.76 15.4336 19.9548 15.2381 19.9548ZM13.8697 17.2279L12.6968 14.1115L11.5239 17.2279H13.8697ZM20.9071 13.6246C21.0049 13.5272 21.0049 13.3324 21.0049 13.3324C21.0049 13.0402 20.8094 12.8454 20.5162 12.8454C20.3207 12.8454 20.1252 12.9428 20.0275 13.235L17.9749 18.5913L15.9223 13.235C15.8245 12.9428 15.6291 12.8454 15.4336 12.8454C15.1403 12.8454 14.9449 13.0402 14.9449 13.3324C14.9449 13.4298 14.9448 13.5272 15.0426 13.6246L17.2907 19.3705C17.4862 19.8574 17.7794 19.9548 17.9749 19.9548C18.1703 19.9548 18.4636 19.8574 18.6591 19.3705L20.9071 13.6246ZM25.6965 16.6436C26.0875 16.6436 26.1852 16.3514 26.1852 16.254C26.1852 16.1566 26.0875 15.8645 25.6965 15.8645H22.7643V13.8193H25.892C26.283 13.8193 26.3807 13.5272 26.3807 13.4298C26.3807 13.3324 26.283 13.0402 25.892 13.0402H22.3733C21.9823 13.0402 21.7868 13.235 21.7868 13.6246V19.4678C21.7868 19.8574 21.9823 20.0522 22.3733 20.0522H25.9898C26.3807 20.0522 26.4785 19.76 26.4785 19.6626C26.4785 19.5652 26.3807 19.2731 25.9898 19.2731H22.7643V16.9357H25.6965V16.6436ZM41.2376 19.9548C41.1399 19.9548 40.9444 19.8574 40.7489 19.5652L40.2602 18.2018H37.2301L36.7414 19.5652C36.6437 19.8574 36.4482 19.9548 36.2527 19.9548C36.0572 19.9548 35.764 19.76 35.764 19.4678C35.764 19.3705 35.764 19.2731 35.8618 19.1757L38.2076 13.3324C38.4031 12.8454 38.5986 12.8454 38.794 12.8454C38.9895 12.8454 39.185 12.9428 39.3805 13.3324L41.7263 19.1757C41.8241 19.2731 41.8241 19.3705 41.8241 19.4678C41.7263 19.76 41.5308 19.9548 41.2376 19.9548ZM39.9669 17.2279L38.794 14.1115L37.6211 17.2279H39.9669ZM34.4934 19.9548C34.6889 19.9548 34.9821 19.8574 34.9821 19.3705V13.4298C34.9821 12.8454 34.5911 12.748 34.3956 12.748C34.2001 12.748 33.9069 12.8454 33.7114 13.3324L31.3656 18.5913L29.0198 13.3324C28.8243 12.8454 28.5311 12.748 28.3356 12.748C28.1401 12.748 27.7491 12.8454 27.7491 13.4298V19.3705C27.7491 19.8574 28.0423 19.8574 28.2378 19.8574C28.4333 19.8574 28.7265 19.76 28.7265 19.3705V14.8906L30.7791 19.4678C30.9746 19.8574 31.1701 19.9548 31.3656 19.9548C31.5611 19.9548 31.7566 19.8574 31.9521 19.4678L34.0047 14.7932V19.3705C34.0047 19.8574 34.2979 19.9548 34.4934 19.9548ZM47.8841 19.4678C47.8841 19.3705 47.8841 19.1757 47.6886 19.0783L44.6586 16.1566L47.4931 13.7219C47.6886 13.5272 47.6886 13.4298 47.6886 13.3324C47.6886 13.0402 47.4931 12.9428 47.1999 12.9428C47.1022 12.9428 46.9067 13.0402 46.8089 13.1376L43.5834 16.0593V13.3324C43.5834 12.8454 43.2902 12.748 43.0947 12.748C42.8992 12.748 42.606 12.8454 42.606 13.3324V19.3705C42.606 19.8574 42.8992 19.9548 43.0947 19.9548C43.2902 19.9548 43.5834 19.8574 43.5834 19.3705V16.254L47.0044 19.76C47.1021 19.9548 47.2976 19.9548 47.3954 19.9548C47.6886 19.9548 47.8841 19.6626 47.8841 19.4678ZM52.7712 16.6436C53.1622 16.6436 53.2599 16.3514 53.2599 16.254C53.2599 16.1566 53.1622 15.8645 52.7712 15.8645H49.8389V13.8193H52.9667C53.3577 13.8193 53.4554 13.5272 53.4554 13.4298C53.4554 13.3324 53.3577 13.0402 52.9667 13.0402H49.448C49.057 13.0402 48.8615 13.235 48.8615 13.6246V19.4678C48.8615 19.8574 49.057 20.0522 49.448 20.0522H53.0645C53.4554 20.0522 53.5532 19.76 53.5532 19.6626C53.5532 19.5652 53.4554 19.2731 53.0645 19.2731H49.8389V16.9357H52.7712V16.6436ZM56.6809 16.741H55.6057V19.3705C55.6057 19.8574 55.3125 19.9548 55.117 19.9548C54.9215 19.9548 54.6283 19.8574 54.6283 19.3705V13.4298C54.6283 13.0402 54.8238 12.8454 55.2148 12.8454H56.8764C58.2448 12.8454 59.32 13.3324 59.32 14.7932C59.32 15.7671 58.6358 16.4488 57.6583 16.6436L59.32 19.0783C59.4177 19.1757 59.4177 19.3705 59.4177 19.3705C59.4177 19.6626 59.2222 19.8574 58.929 19.8574C58.8313 19.8574 58.6358 19.76 58.538 19.5652L56.6809 16.741ZM55.6057 15.8645H56.7787C57.6583 15.8645 58.4403 15.5723 58.4403 14.6958C58.4403 13.8193 57.7561 13.6246 56.8764 13.6246H55.7035V15.8645H55.6057ZM10.1554 12.8454C9.86222 12.7481 9.56901 12.8454 9.47127 13.1376L7.51641 18.3966L6.14803 13.1376C6.05028 12.9428 5.8548 12.748 5.65931 12.748C5.46383 12.748 5.26834 12.8454 5.1706 13.1376L3.80218 18.3966L1.84733 13.1376C1.74959 12.8454 1.45638 12.7481 1.16315 12.8454C0.86992 12.9428 0.77216 13.235 0.869903 13.5272L3.118 19.4678C3.21574 19.6626 3.31348 19.76 3.50896 19.8574C3.89993 19.9548 4.2909 19.8574 4.38864 19.4678V19.3705L5.56156 14.7932L6.73446 19.3705V19.4678C6.8322 19.8574 7.32094 20.0522 7.61416 19.8574C7.80965 19.76 7.90738 19.6626 8.00513 19.4678L10.2532 13.5272C10.5464 13.235 10.4487 12.9428 10.1554 12.8454Z" fill="white"/>
<path d="M39.869 9.24236C39.7713 9.24236 39.6735 9.24236 39.5758 9.24236C39.1848 9.24236 38.7938 8.95019 38.6961 8.56064L37.3277 4.27557L35.9593 8.56064C35.8616 8.95019 35.4706 8.56064 35.0796 8.56064C34.6886 8.56064 34.2977 8.95019 34.1999 8.56064L32.8315 4.27557L31.4631 8.56064C31.3654 8.95019 30.9744 9.24236 30.5835 9.24236C30.4857 9.24236 30.388 9.24236 30.2902 9.24236C29.8015 9.04758 29.5083 8.56064 29.7037 8.0737L31.9518 1.15916C32.0496 0.769611 32.4406 1.15916 32.8315 1.15916C33.2225 1.15916 33.6135 0.769611 33.7112 1.15916L35.0796 5.44422L36.448 1.15916C36.5458 0.769611 36.9367 1.15916 37.3277 1.15916C37.7187 1.15916 38.1096 0.769611 38.2074 1.15916L40.4555 8.0737C40.6509 8.56064 40.3577 9.04758 39.869 9.24236ZM29.997 0.574829C29.8992 0.574829 29.8015 0.574829 29.7037 0.574829C29.3128 0.574829 28.9218 0.867004 28.8241 1.25656L27.4557 5.54161L26.0873 1.25656C25.9895 0.867004 25.5986 1.25656 25.2076 1.25656C24.8166 1.25656 24.4256 0.867004 24.3279 1.25656L22.9595 5.54161L21.5911 1.25656C21.4934 0.867004 21.1024 0.574829 20.7114 0.574829C20.6137 0.574829 20.5159 0.574829 20.4182 0.574829C19.9295 0.769605 19.6363 1.25656 19.8317 1.74349L22.0798 8.65802C22.1776 9.04757 22.5685 8.65802 22.9595 8.65802C23.3505 8.65802 23.7414 9.04757 23.8392 8.65802L25.2076 4.37296L26.576 8.65802C26.6737 9.04757 27.0647 8.65802 27.4557 8.65802C27.8466 8.65802 28.2376 9.04757 28.3354 8.65802L30.5835 1.74349C30.7789 1.25656 30.4857 0.672217 29.997 0.574829Z" fill="white"/>
<path d="M37.3277 0.477112C37.7187 0.477112 38.1097 0.769274 38.2074 1.15883C38.3051 1.3536 38.3051 1.54839 38.2074 1.74316L37.3277 4.37265L36.448 1.74316C36.3503 1.54839 36.3503 1.3536 36.448 1.15883C36.5458 0.769274 36.9367 0.477112 37.3277 0.477112ZM31.8541 1.15883C31.7564 1.3536 31.7564 1.54839 31.8541 1.74316L32.7338 4.37265L33.6135 1.74316C33.7112 1.54839 33.7112 1.3536 33.6135 1.15883C33.5157 0.769274 33.1248 0.477112 32.7338 0.477112C32.3428 0.477112 31.9519 0.769274 31.8541 1.15883ZM27.4557 9.24207C27.8467 9.24207 28.2376 8.9499 28.3354 8.56035C28.4331 8.36557 28.4331 8.17079 28.3354 7.97601L27.4557 5.34653L26.576 7.97601C26.4783 8.17079 26.4783 8.36557 26.576 8.56035C26.6738 8.9499 27.0647 9.24207 27.4557 9.24207ZM22.8618 9.24207C23.2528 9.24207 23.6438 8.9499 23.7415 8.56035C23.8392 8.36557 23.8392 8.17079 23.7415 7.97601L22.8618 5.34653L21.9821 7.97601C21.8844 8.17079 21.8844 8.36557 21.9821 8.56035C22.1776 8.9499 22.4708 9.24207 22.8618 9.24207Z" fill="white"/>
<path d="M25.2076 0.477112C25.5986 0.477112 25.9896 0.769274 26.0873 1.15883C26.1851 1.3536 26.1851 1.54839 26.0873 1.74316L25.2076 4.37265L24.3279 1.74316C24.2302 1.54839 24.2302 1.3536 24.3279 1.15883C24.4257 0.769274 24.8167 0.477112 25.2076 0.477112ZM35.0796 9.24207C35.4706 9.24207 35.8615 8.9499 35.9593 8.56035C36.057 8.36557 36.057 8.17079 35.9593 7.97601L35.0796 5.34653L34.1999 7.97601C34.1022 8.17079 34.1022 8.36557 34.1999 8.56035C34.2977 8.9499 34.5909 9.24207 35.0796 9.24207Z" fill="white"/>
</svg>
